<svg height="512pt" viewBox="-94 0 512 512.00105" width="512pt" xmlns="http://www.w3.org/2000/svg"><path d="m211.433594 1.09375c-3.582032-1.773438-7.863282-1.367188-11.046875 1.054688l-35.847657 26.882812-35.847656-26.882812c-4.660156-3.496094-11.269531-2.550782-14.761718 2.105468-1.371094 1.828125-2.109376 4.046875-2.109376 6.328125v54.761719l-16.417968-32.832031c-2.601563-5.207031-8.933594-7.320313-14.144532-4.714844-2.039062 1.019531-3.695312 2.675781-4.714843 4.714844l-20.035157 40.066406-44.082031-8.011719c-5.730469-1.042968-11.214843 2.761719-12.257812 8.492188-.40625 2.242187-.074219 4.554687.945312 6.59375l17.746094 35.5c-.425781.464844-.808594.960937-1.152344 1.488281-1.882812 3.261719-1.882812 7.28125 0 10.542969l82.917969 145.109375v176.445312c0 34.941407 28.320312 63.261719 63.257812 63.261719 34.941407 0 63.261719-28.320312 63.261719-63.261719v-17.625l34.730469 16.257813c10.902344 4.097656 23.0625-1.417969 27.160156-12.316406 1.902344-5.058594 1.789063-10.65625-.316406-15.636719l-18.566406-44.589844 18.515625-46.855469c3.328125-7.757812 1.707031-16.757812-4.125-22.867187-6.074219-6.269531-15.363281-8.191407-23.425781-4.851563l-33.972657 15.921875v-43.882812l82.957031-145.132813c1.882813-3.261718 1.882813-7.28125 0-10.542968-1.003906-1.695313-2.464843-3.074219-4.21875-3.972657l16.871094-33.675781c2.59375-5.214844.472656-11.542969-4.738281-14.140625-2.046875-1.015625-4.371094-1.34375-6.617187-.925781l-44.082032 8.011718-20.03125-40.066406c-3.101562-5.207031-9.839844-6.917968-15.046875-3.816406-1.570312.933594-2.882812 2.246094-3.816406 3.816406l-11.15625 22.289063v-43.609375c.003906-3.996094-2.253906-7.648438-5.832031-9.433594zm-78.527344 30.574219 14.066406 10.542969-14.066406 10.546874zm0 47.445312 63.261719-47.445312v63.261719c0 .515624 0 1.054687-.074219 1.539062l-5.40625 10.820312c-1.496094 3.0625-2.6875 6.265626-3.566406 9.5625-14.320313-7.128906-31.125-7.273437-45.566406-.390624-5.507813-5.824219-8.597657-13.519532-8.648438-21.53125zm-46.929688-18.375 9.425782 18.863281-17.289063-3.164062zm-56.585937 28.289063 77.8125 14.148437 7.0625 14.136719c3.242187 6.417969 4.175781 13.757812 2.636719 20.78125v.75l-6.253906 8.328125c-18.535157-19.210937-43.09375-31.492187-69.585938-34.792969zm176.667969 359.710937c0 23.292969-18.882813 42.175781-42.175782 42.175781-23.292968 0-42.171874-18.882812-42.171874-42.175781v-31.628906h84.347656zm0-52.71875h-84.347656v-42.171875h84.347656zm0-63.257812h-84.347656v-52.71875h84.347656zm21.085937 75.078125v-22.363282h24.683594l18.230469 42.46875zm41.972657-88.046875v.15625l-17.511719 44.441406h-24.460938v-24.933594zm-58.632813-60.835938h-93.191406l-71.148438-124.511719c22.589844 4.742188 42.695313 17.511719 56.585938 35.945313 3.496093 4.65625 10.101562 5.601563 14.761719 2.109375.800781-.601562 1.507812-1.3125 2.109374-2.109375l18.976563-25.304687c10.480469-13.976563 30.308594-16.808594 44.285156-6.328126 2.398438 1.800782 4.527344 3.929688 6.324219 6.328126l18.980469 25.304687c3.839843 4.65625 10.730469 5.320313 15.390625 1.476563.539062-.441407 1.03125-.9375 1.476562-1.476563 13.894532-18.433594 34.003906-31.207031 56.597656-35.945313zm27.351563-198.875 7.867187 15.722657-17.292969 3.164062zm25.464843 33.953125 31.121094-5.652344-12.335937 24.671876c-24.757813 4.101562-47.539063 16.074218-64.957032 34.140624l-11.007812-14.667968c0-.21875.105468-.410156.105468-.632813-.195312-5.269531.945313-10.503906 3.320313-15.214843l7.054687-14.160157zm0 0"/></svg>