<?xml version='1.0' encoding='iso-8859-1'?>
<svg version="1.1" xmlns="http://www.w3.org/2000/svg" viewBox="0 0 463 463" xmlns:xlink="http://www.w3.org/1999/xlink" enable-background="new 0 0 463 463">
  <g>
    <path d="m295.5,368h-15.997c-4.143,0-7.5,3.357-7.5,7.5s3.357,7.5 7.5,7.5h15.997c4.143,0 7.5-3.357 7.5-7.5s-3.357-7.5-7.5-7.5z"/>
    <path d="m341.802,264.052c-4.113-0.486-7.841,2.457-8.324,6.572l-4.706,40c-0.484,4.113 2.458,7.841 6.572,8.324 0.298,0.035 0.593,0.053 0.886,0.053 3.75,0 6.99-2.809 7.438-6.625l4.706-40c0.485-4.113-2.457-7.841-6.572-8.324z"/>
    <path d="m382.516,234.517c-1.423-1.601-3.463-2.517-5.604-2.517h-1.912v-88.5c0-79.126-64.374-143.5-143.5-143.5s-143.5,64.374-143.5,143.5v88.5h-1.912c-2.142,0-4.182,0.916-5.604,2.517-1.423,1.6-2.095,3.732-1.844,5.859l10.975,93.281c0.729,6.201 4.301,11.443 9.318,14.491-1.866,3.368-2.933,7.237-2.933,11.352 0,6.177 2.399,11.801 6.31,16-3.911,4.199-6.31,9.823-6.31,16 0,6.696 2.82,12.742 7.328,17.027-2.676,3.897-3.888,8.656-3.329,13.403l2.39,20.315c1.392,11.832 11.426,20.755 23.339,20.755h211.544c11.913,0 21.947-8.923 23.339-20.755l2.389-20.315c0.559-4.747-0.653-9.505-3.329-13.403 4.509-4.284 7.329-10.331 7.329-17.027 0-6.177-2.399-11.801-6.31-16 3.911-4.199 6.31-9.823 6.31-16 0-4.115-1.066-7.984-2.932-11.351 5.017-3.049 8.589-8.291 9.318-14.491l10.974-93.281c0.251-2.128-0.421-4.261-1.844-5.86zm-279.516-91.017c0-70.855 57.645-128.5 128.5-128.5s128.5,57.645 128.5,128.5v88.5h-48.405c1.069-1.737 1.993-3.576 2.714-5.519 12.651,2.146 25.777-3.61 32.486-15.231 6.71-11.622 5.133-25.87-3.052-35.75 8.185-9.881 9.762-24.129 3.052-35.75-6.709-11.621-19.836-17.378-32.486-15.232-4.465-12.029-16.016-20.518-29.434-20.518-6.917,0-13.327,2.268-18.536,6.101 3.044-8.429 2.498-18.056-2.292-26.351-6.709-11.62-19.837-17.38-32.486-15.231-4.466-12.03-16.017-20.519-29.436-20.519s-24.97,8.489-29.435,20.519c-12.646-2.146-25.776,3.611-32.486,15.231-6.709,11.621-5.133,25.869 3.052,35.75-8.185,9.88-9.762,24.128-3.052,35.75 1.732,3 3.958,5.68 6.546,7.942-0.187,0.44-0.383,0.875-0.55,1.325-12.651-2.148-25.777,3.611-32.486,15.232-6.71,11.621-5.134,25.87 3.053,35.751-3.898,4.701-6.349,10.44-7.049,16.499h-6.718v-88.499zm47.954,52.25c-6.709,11.62-5.133,25.869 3.052,35.75-0.138,0.166-0.258,0.343-0.392,0.512-0.08-0.003-0.157-0.012-0.238-0.012h-28.461c0.926-4.112 3.416-7.815 7.097-10.225 2.117-1.386 3.393-3.745 3.393-6.275s-1.275-4.89-3.393-6.275c-7.322-4.793-9.653-14.446-5.307-21.975 4.346-7.53 13.871-10.337 21.685-6.392 2.258,1.141 4.939,1.066 7.131-0.199 2.191-1.265 3.597-3.55 3.738-6.075 0.489-8.739 7.684-15.584 16.377-15.584 6.703,0 12.629,4.125 15.133,10.163-3.192,3.179-5.723,7.032-7.328,11.355-12.653-2.148-25.778,3.611-32.487,15.232zm7.548-82.525c-7.322-4.793-9.654-14.445-5.308-21.975 4.347-7.528 13.875-10.335 21.685-6.391 2.26,1.139 4.938,1.065 7.131-0.2 2.191-1.265 3.597-3.55 3.738-6.075 0.49-8.739 7.684-15.584 16.377-15.584s15.888,6.845 16.377,15.584c0.142,2.525 1.547,4.811 3.738,6.075 2.192,1.266 4.872,1.339 7.131,0.2 7.813-3.946 17.337-1.138 21.685,6.391 4.347,7.529 2.016,17.182-5.307,21.975-2.117,1.386-3.393,3.745-3.393,6.274 0,1.93 0.746,3.756 2.036,5.131-8.73,1.629-16.693,6.897-21.44,15.12-3.785,6.556-4.925,13.946-3.737,20.919-2.053-0.424-4.169-0.669-6.342-0.669-3.188,0-6.265,0.493-9.172,1.385-5.224-10.423-15.993-17.385-28.066-17.385-7.512,0-14.437,2.664-19.863,7.116-0.989-0.994-1.854-2.114-2.577-3.366-4.347-7.529-2.016-17.182 5.308-21.975 2.117-1.386 3.393-3.745 3.393-6.275s-1.276-4.89-3.394-6.275zm10.748,112c-7.322-4.793-9.653-14.446-5.307-21.975 4.347-7.529 13.871-10.338 21.685-6.392 2.258,1.141 4.939,1.066 7.131-0.199 2.191-1.265 3.597-3.55 3.738-6.075 0.489-8.739 7.684-15.584 16.377-15.584s15.888,6.845 16.377,15.584c0.142,2.525 1.547,4.811 3.738,6.075 2.191,1.266 4.873,1.34 7.131,0.199 7.81-3.943 17.337-1.139 21.685,6.392 4.347,7.529 2.016,17.182-5.308,21.975-2.117,1.386-3.393,3.745-3.393,6.275s1.275,4.89 3.393,6.275c7.323,4.793 9.654,14.445 5.308,21.975-4.346,7.529-13.873,10.337-21.685,6.391-2.26-1.139-4.939-1.066-7.131,0.2-2.191,1.265-3.597,3.55-3.738,6.075-0.489,8.739-7.684,15.584-16.377,15.584s-15.888-6.845-16.377-15.584c-0.142-2.525-1.547-4.811-3.738-6.075-1.158-0.669-2.453-1.005-3.75-1.005-1.157,0-2.316,0.268-3.381,0.805-7.811,3.948-17.337,1.139-21.685-6.391-4.347-7.529-2.016-17.182 5.307-21.975 2.117-1.386 3.393-3.745 3.393-6.275s-1.275-4.89-3.393-6.275zm104.973,2.803c5.699-9.176 6.453-20.943 1.245-30.999 2.882,1.264 6.063,1.971 9.406,1.971 8.359,0 16.155-4.497 20.347-11.736 2.075-3.585 0.851-8.174-2.733-10.249-3.585-2.073-8.173-0.851-10.249,2.733-1.518,2.623-4.34,4.252-7.364,4.252-4.687,0-8.5-3.813-8.5-8.5s3.813-8.5 8.5-8.5c4.143,0 7.5-3.357 7.5-7.5s-3.357-7.5-7.5-7.5c-12.958,0-23.5,10.542-23.5,23.5 0,3.042 0.587,5.947 1.644,8.617-6.091-3.417-13.234-4.746-20.26-3.658 0.235-0.266 0.46-0.546 0.66-0.851 2.269-3.465 1.298-8.113-2.168-10.383-7.322-4.793-9.653-14.446-5.307-21.975 4.347-7.53 13.871-10.338 21.685-6.392 2.257,1.141 4.938,1.066 7.131-0.199 2.191-1.265 3.597-3.55 3.738-6.075 0.489-8.739 7.684-15.584 16.377-15.584s15.888,6.845 16.377,15.584c0.142,2.525 1.547,4.811 3.738,6.075 2.191,1.266 4.873,1.34 7.131,0.199 7.81-3.942 17.337-1.139 21.685,6.392 4.347,7.529 2.016,17.182-5.308,21.975-2.117,1.386-3.393,3.745-3.393,6.275s1.275,4.89 3.393,6.275c7.323,4.793 9.654,14.445 5.308,21.975-4.346,7.529-13.873,10.336-21.685,6.391-2.26-1.14-4.939-1.065-7.131,0.2-2.191,1.265-3.597,3.55-3.738,6.075-0.489,8.739-7.684,15.584-16.377,15.584-3.93,0-7.702-1.436-10.652-3.972zm84.267,103.877c-0.274,2.333-2.254,4.094-4.604,4.094l-10.386,.001h-15.997c-4.143,0-7.5,3.357-7.5,7.5s3.357,7.5 7.5,7.5h15.997c4.687,0 8.5,3.813 8.5,8.5s-3.813,8.5-8.5,8.5h-15.998c-4.143,0-7.5,3.357-7.5,7.5s3.357,7.5 7.5,7.5h15.998c4.687,0 8.5,3.813 8.5,8.5s-3.813,8.5-8.5,8.5h-15.998c-4.143,0-7.5,3.357-7.5,7.5s3.357,7.5 7.5,7.5h15.998c1.811,0 2.947,0.975 3.463,1.555 0.517,0.581 1.352,1.824 1.141,3.623l-2.39,20.314c-0.504,4.28-4.133,7.508-8.442,7.508h-211.544c-4.31,0-7.938-3.228-8.442-7.507l-2.39-20.315c-0.211-1.799 0.624-3.042 1.141-3.623 0.517-0.58 1.652-1.555 3.463-1.555h176c4.143,0 7.5-3.357 7.5-7.5s-3.357-7.5-7.5-7.5h-176c-4.687,0-8.499-3.813-8.499-8.5s3.813-8.5 8.499-8.5h127.997c4.143,0 7.5-3.357 7.5-7.5s-3.357-7.5-7.5-7.5h-127.997c-4.687,0-8.499-3.813-8.499-8.5s3.813-8.5 8.499-8.5h0.001 176c4.143,0 7.5-3.357 7.5-7.5s-3.357-7.5-7.5-7.5h-176l-10.386-.001c-2.351,0-4.33-1.761-4.604-4.094l-9.988-84.905h22.691c0.036,0.001 0.072,0.005 0.109,0.005 0.019,0 0.039-0.005 0.059-0.005h29.737c-1.005,6.775 0.171,13.903 3.835,20.25 6.709,11.62 19.836,17.38 32.486,15.231 4.465,12.03 16.016,20.519 29.435,20.519s24.97-8.489 29.435-20.519c12.651,2.147 25.777-3.61 32.486-15.231 3.665-6.347 4.841-13.475 3.835-20.25h89.847l-9.988,84.905z"/>
    <path d="m212.875,255c8.359,0 16.155-4.497 20.347-11.736 2.075-3.585 0.851-8.174-2.733-10.249-3.586-2.074-8.173-0.851-10.249,2.733-1.518,2.623-4.34,4.252-7.364,4.252-4.687,0-8.5-3.813-8.5-8.5s3.813-8.5 8.5-8.5c4.143,0 7.5-3.357 7.5-7.5s-3.357-7.5-7.5-7.5c-12.958,0-23.5,10.542-23.5,23.5s10.541,23.5 23.499,23.5z"/>
    <path d="m202.125,143c8.358,0 16.155-4.497 20.347-11.735 2.076-3.585 0.853-8.174-2.731-10.249-3.583-2.075-8.172-0.853-10.249,2.731-1.52,2.623-4.342,4.253-7.366,4.253-4.687,0-8.5-3.813-8.5-8.5s3.813-8.5 8.5-8.5c4.143,0 7.5-3.357 7.5-7.5s-3.357-7.5-7.5-7.5c-12.958,0-23.5,10.542-23.5,23.5s10.541,23.5 23.499,23.5z"/>
  </g>
</svg>
